<svg xmlns:dc="http://purl.org/dc/elements/1.1/" xmlns:cc="http://creativecommons.org/ns#" xmlns:rdf="http://www.w3.org/1999/02/22-rdf-syntax-ns#" xmlns:svg="http://www.w3.org/2000/svg" xmlns="http://www.w3.org/2000/svg" xmlns:sodipodi="http://sodipodi.sourceforge.net/DTD/sodipodi-0.dtd" xmlns:inkscape="http://www.inkscape.org/namespaces/inkscape" version="1.1" x="0px" y="0px" viewBox="0 0 100 125"><g transform="translate(0,-952.36218)"><path style="text-indent:0;text-transform:none;direction:ltr;block-progression:tb;baseline-shift:baseline;color:#000000;enable-background:accumulate;" d="m 16.766198,1010.1406 c -7.0145574,7.0146 -7.0146562,18.4412 -2.11e-4,25.4556 7.01451,7.0145 18.441039,7.0143 25.455624,-2e-4 l 14.142131,-14.1421 c 7.014561,-7.0146 7.014726,-18.4411 2.08e-4,-25.45569 a 3.00025,3.0003 45 1 0 -4.242637,4.24269 c 4.737498,4.7375 4.737414,12.2329 -1.35e-4,16.9704 l -14.142105,14.1422 c -4.737573,4.7375 -12.23297,4.7376 -16.970442,10e-5 -4.737468,-4.7375 -4.737412,-12.2329 1.46e-4,-16.9704 l 13.43502,-13.4351 a 3.00025,3.0003 45 1 0 -4.242567,-4.24253 l -13.435032,13.43503 z m 26.870056,-26.87007 c -7.014571,7.01457 -7.014666,18.44117 -2.03e-4,25.45567 a 3.00025,3.0003 45 1 0 4.242644,-4.2427 c -4.73747,-4.73744 -4.737415,-12.23285 1.31e-4,-16.9704 l 14.142135,-14.14213 c 4.737545,-4.73755 12.232961,-4.73761 16.970421,-1.5e-4 4.737476,4.73748 4.737403,12.23288 -1.22e-4,16.97046 l -13.435062,13.43492 a 3.00025,3.0003 45 1 0 4.242588,4.2426 l 13.43502,-13.43498 c 7.01457,-7.01458 7.014716,-18.44114 2.16e-4,-25.45564 -7.014456,-7.01445 -18.441061,-7.01436 -25.455632,2.1e-4 l -14.142136,14.14214 z" fill="#000000" fill-opacity="1" stroke="none" marker="none" visibility="visible" display="inline" overflow="visible"/></g></svg>