<svg id="RICHIE_LOGO" xmlns="http://www.w3.org/2000/svg" width="111.1" height="96.1" viewBox="99.9 462.4 111.1 96.1"><style>.st0{fill:#FFFFFF;} .st1{fill:#BF1622;} .st2{fill:#BF1622;stroke:#FFFFFF;stroke-width:1.4899;stroke-miterlimit:10;} .st3{opacity:0.19;} .st4{opacity:0.41;fill:#FFFFFF;enable-background:new ;} .st5{opacity:0.39;fill:#FFFFFF;enable-background:new ;} .st6{fill:#931004;stroke:#931004;stroke-width:0.1862;stroke-miterlimit:10;}</style><path class="st0" d="M164.4 478.9c.5 2.8-.6 4.5-3.5 5.2-20.4 4.8-29.8 6.6-45.8 20-2.2 1.9-2.3 3.3-4.3 1.2-1.6-1.7-7-6.8-8.6-8.5-1.9-2.1-1.5-5.7 1-7.8 18.3-15.5 29.5-21 52.9-26.5 3.2-.8 6.3 1 6.9 3.9.4 2.3 1 10.2 1.4 12.5z"/><path class="st1" d="M112.1 496c.3.4.8.4 1.2.1.7-.6 1.3-2.2 1.2-3.6 0-.4 0-.7.2-.8.1-.1.4-.1.5.1.1.2.2.3.2.6v1.1c0 1.3-.7 3.1-1.5 3.7-.7.6-1.8.5-2.3-.1-.6-.8-1.1-2.5-1-4.1.1-1.3.6-2.7 1.3-3.2.5-.3 1.1-.3 1.4.2.4.5.5 1.6.4 2.4-.1.8-.6 1.7-1.2 2.2-.2.1-.7.2-.7.3-.2.2.1.8.3 1.1zm-.6-2.2c.1 0 .5-.2.6-.3.3-.2.6-1 .6-1.5s0-1-.1-1.1c-.1-.2-.4-.2-.6 0-.4.2-.7 2.8-.5 2.9z"/><path class="st1" d="M114.9 495.7c-.1 0-.1.1-.1.1-.2.1-.4 0-.5-.1-.1-.1-.1-.2-.1-.4 0-.3 0-.4.1-.7v-.8-.2-.3-.6-1.3-1.1c0-1.8.4-3.2 1-3.6.3-.2.8-.2 1 .1.2.3.1.6-.4 1.2s-.6 1.1-.2 1.6c.1.1.3.4.6.7.2.2.3.4.5.5 1.1 1.6 1.1 3.6 0 4.4-.6.4-1.8-.2-1.8-.2s.1.6-.1.7zm.2-1.8c.1.4.7.5 1.1.3.3-.2.4-.7.3-1.4-.1-.6-.4-1.3-.8-1.9-.1-.2-.5-.6-.5-.6-.1 0-.1.7-.1 1.5v.9c0 .3 0 .5-.1.8v.1c.1.2.1.3.1.3zM118.3 485.9c0 .9.2 2.1.3 2.5.1.6.2.8.4 1.4.1.4.2.6.3.8.2.4.6.5.9.3.3-.2.6-1.1.6-2v-1.2c0-.3.1-.5.2-.6.2-.1.4 0 .5.1 0 .1.1.2.1.3v.9c0 1.8-.4 3.1-1.1 3.6-.6.4-1.3.2-1.9-.6-.3-.5-.6-1-.7-1.7-.2-.6-.3-1.5-.5-3.2v-.5c-.1.2-.3.3-.4.3-.3.2-.7.2-.9 0-.1-.2 0-.5.2-.7l.5-.5c.2-.1.5-.4.6-.6.1-.3 0-.8.1-1.2 0-.4.1-.9.2-1.7.1-.6.2-1 .4-1.1.2-.2.6-.1.7.1.1.2 0 .6 0 1.3V483.1c.1-.1.1-.2.2-.3l.6-.6c.2-.2.4-.3.5-.4.4-.3.8-.3.9 0 .1.2-.1.5-.5.9-.3.3-.5.4-.8.7l-.5.5c-.2.2-.2.3-.3.3-.1.1-.3.3-.4.5-.3.6-.2 1-.2 1.2zM123.2 491.3c-.1-.2-.2-.4-.2-.5-.2-.7-.1-1.2.2-1.4.3-.2.6-.1.8.2.1.1.1.2.2.4.2.7.1 1.3-.2 1.5-.3.1-.6.1-.8-.2zM131.3 476.3c-.2.3-.5.7-.6.9-.2.3-.3.4-.6.7-.1.2-.3.3-.4.3-.2.1-.5 0-.6-.2-.1-.2-.1-.6.2-.8.1-.1.2-.2.4-.5.1-.1.3-.3.5-.6s.3-.5.4-.6c.3-.5.5-.7.8-1.2.4-.6.8-1 1-1.1.3-.1.7 0 .8.2.1.1 0 .5 0 1.1-.1.5-.1.8-.2 1.3-.1.4-.1.6-.2 1.1-.1.5-.2 1.4-.3 2.6 0 .6-.1 1-.1 1.3v3.1c.1.9 0 1.3-.2 1.4-.1.1-.3 0-.5 0-.1 0-.2-.1-.2-.2-.2-.4-.3-2-.2-5 0-1.2.1-2.1.2-2.7.1-.7.3-1.8.3-1.8 0-.2-.3.4-.5.7zM136.4 478.8c-1 .5-2 .1-2.5-1-.6-1.3-.4-3.3.7-5 .5-.9 1.3-1.5 2.1-1.9 1.3-.5 2.4-.1 2.9 1.1.5 1.3.5 3.2 0 5.2-.2 1.1-.7 2.3-1.2 3.6-.5 1.2-.8 1.9-1.1 2.1-.2.1-.5 0-.6-.2-.1-.2 0-.4.2-.8.4-.8.8-1.7 1-2.5.1-.4.2-.9.3-1.2.1-.4.2-1.2.2-1.2s-1.4 1.5-2 1.8zm2.2-3.2c.3-.8.1-2-.2-2.7-.4-.9-.9-1.2-1.7-.9-.8.3-1.4 1.1-1.8 2.2-.4 1.1-.4 2.1 0 2.8.3.7.8.8 1.5.5.8-.3 1.9-1.1 2.2-1.9z"/><path class="st1" d="M144.3 469.9c-1.6.9-2.8 1.6-3.6 1.9-.6.2-1 .1-1.1-.2-.1-.3.1-.6.4-.7.1 0 .2-.1.4-.1.1 0 .2-.1.3-.1.4-.2 1.1-.5 1.9-.9.7-.4 1.7-.9 2.1-1.2.2-.2.5-.3.6-.3.4-.1.8.1.9.4.1.3 0 .5-.3 1-1.4 2.7-2 4.3-2.5 6.2-.1.4-.2.8-.3 1.1 0 .1-.1.2-.1.4-.1.8-.3 1.5-.4 2-.1 1-.2 1.2-.2 1.4-.1.2-.2.3-.3.4-.3.1-.5 0-.6-.2-.1-.2-.1-.4-.1-.8.1-.6.1-.9.2-1.5 0-.3.2-1.1.4-1.9.2-.8.5-1.8.8-2.7.3-.7.5-1.5.8-2.1.2-.4.4-.9.6-1.3.2-.3.3-.6.6-1.1-.2.1-.3.2-.5.3zM149.5 470.5c1.3-.4 2.3.1 2.6 1.2.3 1.1 0 2.5-.7 4-.7 1.4-1.7 2.5-2.7 2.8-1.1.4-2.1-.2-2.6-1.4-.3-.9-.1-1.7.5-1.9.2-.1.4 0 .5.1v.6c0 .2.1.4.1.5.3.7.8 1.1 1.5.9.6-.2 1.2-.9 1.6-1.8.5-1 .7-2.2.4-2.9-.2-.7-.7-1-1.4-.7-.4.1-1.1.6-1.4.9-.2.2-.3.3-.5.4l-.2.2c-.2 0-.4 0-.7-.2-.1-.1-.2-.2-.2-.3-.2-.5 1.6-3.9 1.5-4.1 0-.1-.4-.1-.4-.3-.2-.5 1.2-1.3 3.7-2 1.2-.3 1.6-.3 1.7.2.1.3-.1.5-.5.6-.1 0-.2.1-.4.1-.1 0-.2 0-.3.1-.7.2-1.6.4-2.1.8-.5.5-.8 1.2-1.1 1.8-.3.6-.6 1.6-.6 1.6.1-.1 1.2-1 1.7-1.2z"/><path class="st2" d="M208.5 496.9c7.4 18.8-10.4 43.4-39.7 54.9-29.3 11.5-59.1 5.7-66.5-13.1-7.4-18.8 10.4-43.4 39.7-54.9 29.3-11.5 59.1-5.6 66.5 13.1z"/><g class="st3"><ellipse transform="rotate(158.53 151.738 504.86)" class="st0" cx="151.7" cy="504.9" rx="38.5" ry="23.1"/></g><g><path class="st4" d="M204.7 498.9c-3.3-7.9-11.6-12.7-22.1-14.1 9.3 1.9 16.5 6.6 19.5 13.8 6.4 15.1-7.6 35.5-31.2 45.5-3.5 1.5-7.1 2.7-10.6 3.5 4.5-.9 9.1-2.3 13.7-4.2 23.2-9.7 36.9-29.7 30.7-44.5z"/></g><path class="st5" d="M115 537.2c-6.9-15.1 6.7-36.1 30.4-46.8 6.2-2.8 12.4-4.6 18.4-5.5-8 .2-16.8 2.2-25.5 6.2-23.7 10.7-37.3 31.7-30.4 46.8 5.1 11.2 19.9 16.1 36.9 13.5-14 .3-25.5-4.6-29.8-14.2z"/><g><path class="st6" d="M120 528.7c-.1-.1-.1-.3-.1-.5-.2-1 .1-1.9.7-2.2.1-.1.5-.1.9-.1l.1-.6v-.3l.7-4.8c.1-.6.2-1.3.2-2.1.1-1.5.2-2.1.1-3.6-.3.4-.6.7-.8.9-.2.3-.4.4-.5.5-.4.2-1-.2-1.2-.8-.4-1 .5-2.8 2.6-4.7-.6-1.4-.3-2.4.9-2.9.6-.2 1-.1 1.7.4 1.3-1.1 2.3-1.8 3.6-2.3 3.7-1.5 6.8-.5 8.2 2.9 2.8 6.8-2.5 15.9-11.6 19.6-.5.2-.8.3-1.5.5.5.5.6.7.9 1.1.5.6 1 1.1 2.4 2.3l3.9 3.6c1.1 1 2.1 1.8 3.1 2.5l1.6 1.1c.4.3.7.5.8.8v.1c.2.5.1 1-.3 1.4l-.5.5c-.6.2-1.3-.1-3.3-1.8l-.1-.1c-.9-.7-1.5-1.3-1.9-1.5-.6-.6-1.4-1.3-2.2-2-.9-.7-1.7-1.5-2.5-2.3-.8-.9-1.3-1.2-2.4-2.4-.1 1.7-.1 2.3-.2 3.7-.2 3.3-.2 5.4-.1 8.1.1.8.1 1.4.1 1.8.1.9-.2 1.4-.8 1.7-.7.3-1.7-.1-1.9-.8-.2-.6-.3-2.8-.3-6.1 0-1.4.1-3.2.3-5.1.2-1.9.2-2.9.5-5.4-.7-.5-.9-.7-1.1-1.1zm4.2-3.2c.6-.2.9-.3 1.2-.5 3.4-1.4 6.2-4.1 8.2-7.6 1.7-3.1 2.1-5.9 1.3-8-.8-1.9-2.4-2.4-4.8-1.4-1.7.7-2.9 1.7-4.6 3.6-.1 1.2-.1 1.7-.1 2.7-.1 1-.2 1.5-.4 4.3-.2 3.5-.4 3.9-.4 5-.2.8-.3 1.1-.4 1.9z"/><path class="st6" d="M143.1 534.9c-.6 1.3-1.5 2.3-2.3 2.7-1.1.4-2.4-.2-2.9-1.5s-.7-3.2-.4-5.4c.3-3.4 1.3-6.6 2.1-7 .5-.2.9 0 1.1.5.2.4.1 1-.3 3.2-.7 3.5-.9 5.3-.6 6.2.2.5.7.7 1.1.5.8-.3 1.9-3.4 2.4-6.5.1-.8.3-1.4.6-1.5.4-.2.8.1 1 .5.1.3.1.8.1 1.2l-.3 2c-.2 1.3-.9 3.5-1.6 5.1zm-4.4-20.5c-.2-.5-.2-1 .1-2.1.4-1.5.9-2.2 1.6-2.4.6-.2 1.3.1 1.6.8.1.3.1.7.1 1.1-.2 1.9-.8 3.2-1.6 3.5-.7.2-1.4-.1-1.8-.9z"/><path class="st6" d="M143.4 525.3c.9-4.3 2.9-7.9 4.8-8.7 1.2-.5 2.2 0 2.8 1.4.4 1.1.4 2.2 0 4-.3 1.3-.7 2-1.2 2.2-.5.2-1-.1-1.2-.6-.1-.2-.1-.4 0-.6 0-.1.2-.3.4-.8.1-.2.2-.5.3-.8.2-.7.2-1.4.1-1.7-.1-.2-.4-.4-.7-.3-.5.2-1.1 1.2-1.7 2.7-.5 1.3-1 3.5-1.2 5.3-.2 1.8 0 3.2.3 3.9.4 1 1.5 1.5 2.4 1.1 1.5-.6 3.5-4.2 4.4-7.9.1-.7.4-1.3.7-1.4.4-.2.9.1 1 .5.3.6 0 1.9-1.1 5-1.2 3.4-2.8 5.5-4.8 6.3-2 .8-4.1.1-5-2-.8-1.9-.8-4.9-.3-7.6z"/><path class="st6" d="M157.6 519.8c-.8 1.8-1.6 4.6-1.7 6.2l-.2 3.4c0 1.1-.4 1.9-.8 2.1-.6.2-1.2-.1-1.4-.6-.1-.3-.2-.8-.2-1.4l-.1-2.1c-.4-6.1.2-16 1.5-22.7 1.1-6.5 3-11.1 4.8-11.9 1-.4 2 0 2.5 1.2.8 1.9.6 5-.4 8.9-.7 3-2.1 6.8-3.1 8.6L156 516s-.1.1-.1.3c-.1.1-.2.3-.3.6v.7l-.1 1.1c0 .5-.1.7 0 1.5l.5-.9c.2-.4.4-.7.6-1l.4-.8c.1-.3.2-.5.3-.5l.7-1.3c.9-1.8 1.5-2.6 2.2-2.9.6-.3 1.3 0 1.6.7.2.4.2 1-.1 1.9-.4 1.5-.9 3.6-1 4.6l-.1 2c0 .5 0 .9.2 1.3.2.5.7.7 1.2.6.7-.3 1.5-2.2 2-5.1l.5-1.9c.2-.9.4-1.4.7-1.5.3-.1.7.1.9.4.1.3.2.6.1 1.1l-.2 1.8c-.1.8-.5 3-1 4.4-.7 2.4-1.7 3.7-2.8 4.2-1.2.5-2.5-.2-3.1-1.8-.7-1.8-.7-3.9.2-8-1 1-1.3 1.5-1.7 2.3zm-1.8-7.2c.9-1.4 1.4-2.4 2.1-3.9.5-1.4 1.1-3 1.7-5.1.4-1.5.6-2.5.7-3.1l.3-2.5c0-.6 0-1.1-.2-1.4-.2-.4-.4-.5-.7-.3-.5.2-1.6 2.8-2.4 5.6-.5 2.2-.9 4.5-1.2 7-.2 1.1-.2 1.9-.3 3.7z"/><path class="st6" d="M169.8 523.9c-.6 1.3-1.5 2.3-2.3 2.7-1.1.4-2.4-.2-2.9-1.5s-.7-3.2-.5-5.4c.3-3.4 1.3-6.6 2.1-7 .5-.2.9 0 1.1.5.2.4.1 1-.3 3.2-.7 3.5-.9 5.3-.6 6.2.2.5.7.7 1.1.5.8-.3 1.9-3.4 2.4-6.5.1-.8.3-1.4.6-1.5.4-.2.9.1 1 .5.1.3.2.8.1 1.2l-.3 2c-.2 1.3-.8 3.5-1.5 5.1zm-4.5-20.5c-.2-.5-.2-1 .1-2.1.4-1.5.9-2.2 1.6-2.4.6-.3 1.3.1 1.6.8.1.3.1.7.1 1.1-.2 1.9-.8 3.2-1.6 3.5-.7.2-1.4-.1-1.8-.9z"/><path class="st6" d="M172.7 519.5c.4 1 1.5 1.5 2.6 1 1.9-.8 3.9-4.1 4.6-7.5.1-1 .4-1.5.8-1.7.4-.2.9 0 1 .4.2.4.2.9 0 1.6l-.6 2.5c-.8 3.1-3.4 6.6-5.5 7.5-1.9.8-4.3-.2-5.1-2.1-.9-2.2-.9-6.6.2-10 .9-3 2.8-5.6 4.5-6.3 1.2-.5 2.4.1 2.9 1.3.6 1.5.5 3.9-.3 5.8-.7 1.9-2.2 3.6-3.8 4.2-.5.2-.9.3-1.7.2-.1 1.5 0 2.3.4 3.1zm-.1-5.5c.7 0 1.1-.1 1.4-.2.8-.3 1.9-1.8 2.2-3.1.4-1.2.4-2.2.3-2.7-.2-.5-.7-.7-1.2-.5-1.1.4-2.1 3-2.7 6.5zM182.4 488.6c.7-.3 1.5.2 1.8.9.5 1.2.5 3.4.2 5.6-.5 3.1-1.7 6-2.7 6.4-.6.2-1.2-.1-1.4-.7-.2-.5-.1-.9.4-1.9 1-2.2 1.4-5.1 1-7l-.3-1.1c-.2-1 .2-1.9 1-2.2zM184.7 518.3c-.1.1-.3 0-.4.1-.5 0-.8-.2-1-.5-.1-.2-.1-.5.1-.9l.5-1.5c.1-.3.2-.5.5-1.7l.1-.5.2-.7.3-1.3c.4-1.6.6-2.5.7-3.1l.5-2.6c.8-4.1 2.3-7.1 3.8-7.8.8-.3 1.7 0 2.1.8.4.9.1 1.5-1.3 2.5-1.5 1.2-1.8 2.2-1.2 3.7.2.4.5 1.1 1 1.9.3.5.6 1.1.8 1.5 1.8 4.3.8 9.1-2.2 10.3-1.6.7-2.8.1-3.9-1.5 0 .7-.2 1.1-.6 1.3zm1.4-3.9c.5 1.2 1.4 1.7 2.3 1.3.8-.3 1.3-1.5 1.4-3 .1-1.5-.3-3.4-.9-4.9-.2-.6-.4-.9-.8-1.6-.5 1.2-.5 1.5-.9 3.4-.2.9-.3 1.7-.5 2.1l-.6 1.9v.8zM150.3 550.2c-.8-.7-.2-2.9 1.3-4.8 2.4-2.9 7.3-6.9 12.4-10.3 7-4.6 13.9-7.5 15.1-6.5.7.6.2 2.3-1 3.8-1.1 1.3-1.9 1.8-4.5 2.8-5.1 2-11.8 6.5-16 10.7l-2.4 2.5c-1.8 1.8-3.9 2.6-4.9 1.8z"/></g><g><path class="st0" d="M121.6 526.2c-.1-.1-.1-.3-.2-.5-.2-1 .1-1.9.7-2.2.1-.1.5-.1.9-.1l.1-.6v-.3l.7-4.8c.1-.6.2-1.3.2-2.1.1-1.5.2-2.1.1-3.6-.3.4-.6.7-.8.9-.2.3-.4.4-.5.5-.4.2-1-.2-1.2-.8-.4-1 .5-2.8 2.6-4.7-.6-1.4-.3-2.4.9-2.9.6-.2 1-.1 1.7.4 1.3-1.1 2.3-1.8 3.6-2.3 3.7-1.5 6.8-.5 8.2 2.9 2.8 6.8-2.5 15.9-11.6 19.6-.5.2-.8.3-1.5.5.5.5.6.7.9 1.1.5.6 1 1.1 2.4 2.3l3.9 3.6c1.1 1 2.1 1.8 3.1 2.5l1.6 1.1c.4.3.7.5.8.8v.1c.2.5.1 1-.3 1.4-.3.3-.5.5-.6.5-.6.2-1.3-.1-3.3-1.8l-.1-.1c-.9-.7-1.5-1.3-1.9-1.5-.6-.6-1.4-1.3-2.2-2-.9-.7-1.7-1.5-2.5-2.3-.8-.9-1.3-1.2-2.4-2.4-.1 1.7-.1 2.3-.2 3.7-.2 3.3-.2 5.4-.1 8.1.1.8.1 1.4.1 1.8.1.9-.2 1.4-.8 1.7-.7.3-1.7-.1-1.9-.8-.2-.6-.3-2.8-.3-6.1 0-1.4.1-3.2.3-5.1.2-1.9.2-2.9.5-5.4-.6-.5-.8-.7-.9-1.1zm4.1-3.2c.6-.2.9-.3 1.2-.5 3.4-1.4 6.2-4.1 8.2-7.6 1.7-3.1 2.1-5.9 1.3-8-.8-1.9-2.4-2.4-4.8-1.4-1.7.7-2.9 1.7-4.6 3.6-.1 1.2-.1 1.7-.1 2.7-.1 1-.2 1.5-.4 4.3-.2 3.5-.4 4-.4 5-.2.8-.2 1.1-.4 1.9zM144.7 532.4c-.6 1.4-1.5 2.3-2.3 2.7-1.1.4-2.4-.2-2.9-1.5s-.7-3.2-.4-5.4c.3-3.4 1.3-6.6 2.1-7 .5-.2.9 0 1.1.5.2.4.1 1-.3 3.2-.7 3.5-.9 5.3-.6 6.2.2.5.7.7 1.1.5.8-.3 1.9-3.4 2.4-6.5.1-.8.3-1.4.6-1.5.4-.2.9.1 1 .5.1.3.2.8.1 1.2l-.3 2c-.3 1.3-.9 3.5-1.6 5.1zm-4.5-20.5c-.2-.5-.2-1 .1-2.1.4-1.5.9-2.2 1.6-2.5.6-.3 1.3.1 1.6.8.1.3.1.7.1 1.1-.2 1.9-.8 3.2-1.6 3.5-.7.3-1.4 0-1.8-.8z"/><path class="st0" d="M145 522.8c.9-4.3 2.9-7.9 4.8-8.7 1.2-.5 2.2 0 2.8 1.4.4 1.1.4 2.2 0 4-.3 1.3-.7 2-1.2 2.2-.5.2-1-.1-1.2-.6-.1-.2-.1-.4 0-.6.1-.1.2-.3.4-.8.1-.2.2-.5.3-.8.2-.7.2-1.4.1-1.7-.1-.2-.4-.4-.7-.3-.5.2-1.1 1.2-1.7 2.7-.5 1.3-1 3.5-1.2 5.3-.2 1.8 0 3.2.3 3.9.4 1 1.5 1.5 2.4 1.1 1.5-.6 3.5-4.2 4.4-7.9.1-.7.4-1.3.7-1.4.4-.2.9.1 1 .5.3.7 0 1.9-1.1 5-1.2 3.4-2.8 5.5-4.8 6.3-2 .8-4.1.1-5-2-.8-2-.9-4.9-.3-7.6z"/><path class="st0" d="M159.1 517.3c-.8 1.8-1.6 4.6-1.7 6.2l-.2 3.4c0 1.1-.4 1.9-.8 2.1-.6.2-1.2-.1-1.4-.6-.1-.3-.2-.8-.2-1.4l-.1-2.1c-.4-6.1.2-16.1 1.5-22.7 1.1-6.5 3-11.1 4.8-11.9 1-.4 2 0 2.5 1.2.8 1.9.6 5-.4 8.9-.7 3-2.1 6.8-3.1 8.6l-2.5 4.5s-.1.1-.1.3c-.1.1-.2.3-.3.6v.7l-.1 1.1v1.5l.5-.9c.2-.4.4-.7.6-1l.4-.8c.1-.3.2-.5.3-.5l.7-1.3c.9-1.8 1.5-2.6 2.2-2.9.6-.3 1.3 0 1.6.7.2.4.2 1-.1 1.9-.4 1.5-.9 3.6-1 4.6l-.1 2c0 .5.1.9.2 1.3.2.5.7.7 1.2.6.7-.3 1.5-2.2 2-5l.5-1.9c.2-.9.4-1.4.7-1.5.3-.1.7.1.9.4.1.3.2.6.1 1.1l-.2 1.8c-.1.8-.6 3-1 4.4-.7 2.4-1.7 3.7-2.8 4.2-1.3.5-2.5-.2-3.2-1.8-.7-1.8-.7-3.9.2-8-.9.8-1.2 1.4-1.6 2.2zm-1.8-7.2c.9-1.4 1.4-2.4 2.1-3.9.5-1.4 1.1-3 1.7-5.1.4-1.5.6-2.5.7-3.1l.3-2.5c0-.6 0-1.1-.2-1.4-.2-.4-.4-.5-.7-.3-.5.2-1.6 2.8-2.4 5.7-.5 2.2-.9 4.5-1.2 7-.2 1-.2 1.8-.3 3.6z"/><path class="st0" d="M171.3 521.3c-.6 1.3-1.5 2.3-2.4 2.7-1.1.4-2.4-.2-2.9-1.5s-.7-3.2-.4-5.4c.3-3.4 1.3-6.6 2.1-7 .5-.2.9 0 1.1.5.2.4.1 1-.3 3.2-.7 3.5-.9 5.3-.6 6.2.2.5.7.7 1.1.5.8-.3 1.9-3.4 2.4-6.5.1-.8.3-1.4.6-1.5.4-.2.9.1 1 .5.1.3.2.8.1 1.2l-.3 2c-.1 1.4-.8 3.6-1.5 5.1zm-4.4-20.4c-.2-.5-.2-1 .1-2.1.4-1.5.9-2.2 1.6-2.5.6-.2 1.3.1 1.6.8.1.3.1.7.1 1.1-.2 1.9-.8 3.2-1.6 3.5-.8.3-1.4-.1-1.8-.8z"/><path class="st0" d="M174.2 516.9c.4 1 1.5 1.5 2.6 1 1.9-.8 3.9-4.1 4.5-7.5.1-1 .4-1.5.8-1.7.4-.2.9 0 1 .4.2.4.2.9 0 1.6l-.6 2.5c-.8 3.1-3.4 6.6-5.5 7.5-1.9.8-4.3-.2-5.1-2-.9-2.2-.9-6.6.2-10 .9-3 2.8-5.6 4.5-6.3 1.2-.5 2.4.1 2.9 1.3.6 1.5.5 3.9-.3 5.8-.7 1.9-2.2 3.6-3.8 4.2-.5.2-.9.3-1.7.2.1 1.4.2 2.3.5 3zm-.1-5.4c.7 0 1.1-.1 1.4-.2.8-.3 1.9-1.8 2.2-3.1.4-1.2.4-2.2.3-2.7-.2-.5-.7-.7-1.2-.5-1.1.4-2.1 2.9-2.7 6.5zM184 486.1c.6-.3 1.5.2 1.8.9.5 1.2.5 3.4.2 5.6-.5 3.1-1.7 6-2.7 6.4-.6.2-1.2-.1-1.4-.7-.2-.5-.1-.9.4-1.9 1-2.2 1.4-5.1 1-7l-.3-1.1c-.3-1 .2-1.9 1-2.2zM186.2 515.8c-.1.1-.2 0-.4.1-.5 0-.8-.2-1-.5-.1-.2-.1-.5.1-.9l.5-1.5c.1-.3.2-.5.5-1.7l.1-.5.2-.7.3-1.3c.4-1.6.6-2.5.7-3.1l.5-2.6c.8-4.1 2.3-7.1 3.8-7.8.8-.3 1.7 0 2.1.8.4.9.1 1.5-1.3 2.5-1.5 1.2-1.8 2.2-1.3 3.7.2.4.6 1.1 1 1.9.3.5.6 1.1.8 1.5 1.8 4.3.8 9.1-2.2 10.3-1.6.7-2.8.1-3.9-1.5.2.7 0 1.1-.5 1.3zm1.4-3.9c.5 1.2 1.4 1.7 2.3 1.3.8-.3 1.3-1.5 1.4-3 .1-1.5-.3-3.4-.9-4.9-.2-.6-.4-.9-.8-1.6-.5 1.2-.5 1.5-.9 3.4-.2.9-.3 1.7-.5 2.1l-.6 1.9v.3c.1.2.1.3 0 .5zM151.8 547.7c-.8-.7-.2-2.9 1.3-4.8 2.4-2.9 7.3-6.9 12.4-10.3 7-4.6 13.9-7.5 15.1-6.5.7.6.2 2.3-1 3.8-1.1 1.3-1.9 1.8-4.5 2.8-5.1 2-11.8 6.5-16 10.7l-2.4 2.5c-1.7 1.8-3.9 2.6-4.9 1.8z"/></g></svg>